<svg xmlns="http://www.w3.org/2000/svg" viewBox="0 0 64 64"><path fill="#8B2F60" d="M0 0h64v64H0z" class="icon-background"/><g fill="#fff" class="icon-foreground"><path d="M44 50h1c.6 0 1-.4 1-1v-5h-2v6z" opacity=".5"/><path d="M44 36h2v6h-2z" opacity=".75"/><path d="M44 28h2v6h-2z"/><path d="M17 14c-.6 0-1 .4-1 1v34c0 .6.4 1 1 1h25V26h4V15c0-.6-.4-1-1-1H17zm3 4h16v2H20v-2zm0 4h10v2H20v-2zm0 4h10v2H20v-2zm12 6h4v14h-4V32zm-12 2h4v12h-4V34zm6 4h4v8h-4v-8z"/><path d="M20 40h4v6h-4zM26 40h4v6h-4zM32 34h4v12h-4z" opacity=".5"/></g></svg>