<svg xmlns="http://www.w3.org/2000/svg" viewBox="0 0 64 64"><path fill="#A4276A" d="M0 0h64v64H0z" class="icon-background"/><g fill="#fff" class="icon-foreground"><path d="M15 14c-.5 0-1 .5-1 1v34c0 .5.5 1 1 1h34c.5 0 1-.5 1-1V18H26v-4H15zm3 8h18v14H18V22zm20 0h8v14h-8V22zM18 40h8v6h-8v-6zm10 0h18v2H28v-2zm0 4h10v2H28v-2z"/><path d="M40 16h10v-1c0-.5-.5-1-1-1h-9v2z" opacity=".5"/><path d="M28 14h10v2H28z" opacity=".25"/><path d="M38 24h8v12h-8z" opacity=".5"/><path fill-rule="evenodd" d="M36 36H18v-4l6-2 4 2 4-2 4-6z" opacity=".5"/><path d="M18 42h8v4h-8z" opacity=".5"/></g></svg>