<svg xmlns="http://www.w3.org/2000/svg" viewBox="0 0 64 64"><path fill="#439B92" d="M0 0h64v64H0z" class="icon-background"/><g fill="#fff" class="icon-foreground"><path d="M14 12v6h36v-6H14zm2 2h28v2H16v-2zm30 0h2v2h-2v-2zm-32 6v32h4V38h10v14h2V38h16v14h4V20H14zm4 4h8v2h-8v-2zm10 0h2v2h-2v-2zm4 0h2v2h-2v-2zm8 0h2v2h-2v-2zm4 0h2v2h-2v-2zm-26 4h28v8H18v-8z"/><path d="M16 14h28v2H16zM14 18h36v2H14z" opacity=".5"/><path d="M18 28h28v8H18zM18 38h10v14H18zM30 38h16v14H30z" opacity=".25"/><path d="M28 24h2v2h-2zM32 24h2v2h-2zM40 24h2v2h-2zM44 24h2v2h-2z" opacity=".5"/></g></svg>