<svg xmlns="http://www.w3.org/2000/svg" viewBox="0 0 64 64"><path fill="#D04139" d="M0 0h64v64H0z" class="icon-background"/><g fill="#fff" class="icon-foreground"><path d="M40 14H24v2h16zM30 26h10v18H30z" opacity=".5"/><path d="M19 14c-.6 0-1 .4-1 1v34c0 .6.4 1 1 1h26c.6 0 1-.4 1-1V15c0-.6-.4-1-1-1h-5l-2.7 2H26.7l-2.7-2h-5zm7 6h12v2H26v-2zm-2 6h4v2h-4v-2zm6 0h10v2H30v-2zm-6 4h4v2h-4v-2zm6 0h10v2H30v-2zm-6 4h4v2h-4v-2zm6 0h10v2H30v-2zm-6 4h4v2h-4v-2zm6 0h10v2H30v-2zm-6 4h4v2h-4v-2zm6 0h10v2H30v-2zM40 14H24l2.7-2h10.6z"/></g></svg>