<svg xmlns="http://www.w3.org/2000/svg" viewBox="0 0 64 64"><path fill="#428859" d="M0 0h64v64H0z" class="icon-background"/><g fill="#fff" class="icon-foreground"><path d="M17 16a1 1 0 0 0-1 1v6a1 1 0 0 0 1 1h30a1 1 0 0 0 1-1v-6a1 1 0 0 0-1-1H17zm23 4h2v2h-2v-2zm4 0h2v2h-2v-2zM17 26a1 1 0 0 0-1 1v6a1 1 0 0 0 1 1h30a1 1 0 0 0 1-1v-6a1 1 0 0 0-1-1H17zm23 4h2v2h-2v-2zm4 0h2v2h-2v-2zM17 36a1 1 0 0 0-1 1v10a1 1 0 0 0 1 1h30a1 1 0 0 0 1-1V37a1 1 0 0 0-1-1H17zm23 8h2v2h-2v-2zm4 0h2v2h-2v-2z"/></g></svg>